#define _width 7
#define _height 7
static char _bits[] = {
 0x08,0x0c,0x7e,0x7f,0x7e,0x0c,0x08 };
