#define _width 7
#define _height 7
static char _bits[] = {
 0x08,0x18,0x3f,0x7f,0x3f,0x18,0x08 };
