#define _width 8
#define _height 24
static char _bits[] = {
 0x00,0xfe,0x10,0x10,0xfe,0x00,0x70,0xa8,0xa8,0xb0,0x00,0x7e,0x80,0x00,0x7e,
 0x80,0x00,0x70,0x88,0x88,0x70,0x00,0xbe,0x00 };
