#define _width 27
#define _height 30
static char _bits[] = {
 0xfe,0xff,0xff,0x03,0x01,0x00,0x00,0x04,0x45,0xcf,0x44,0x05,0x6d,0x21,0x45,
 0x05,0x55,0x27,0x55,0x05,0x45,0x21,0x55,0x04,0x45,0xcf,0x28,0x05,0x01,0x00,
 0x00,0x04,0x8e,0xff,0xff,0x03,0x90,0x00,0x00,0x00,0xa0,0x00,0x00,0x00,0xc0,
 0x00,0x00,0x00,0x80,0x00,0x00,0x00,0x20,0x08,0x00,0x00,0x50,0x14,0x00,0x00,
 0x90,0x13,0xc0,0x00,0x08,0x20,0x20,0x01,0x08,0x20,0x20,0x01,0x28,0xc9,0x47,
 0x01,0x84,0x82,0x4a,0x01,0x04,0x80,0x72,0x01,0x04,0x80,0xa2,0x00,0x04,0x80,
 0xa2,0x00,0x04,0x00,0x40,0x00,0x04,0x00,0x40,0x00,0x04,0x00,0x40,0x00,0x08,
 0x00,0x20,0x00,0x10,0x00,0x10,0x00,0xa0,0x7d,0x0b,0x00,0x60,0xc6,0x0c,0x00 };
