#define _width 27
#define _height 30
static char _bits[] = {
 0xfe,0xff,0xff,0x03,0x01,0x00,0x00,0x04,0x45,0xcf,0x44,0x05,0x6d,0x21,0x45,
 0x05,0x55,0x27,0x55,0x05,0x45,0x21,0x55,0x04,0x45,0xcf,0x28,0x05,0x01,0x00,
 0x00,0x04,0xfe,0xff,0x8f,0x03,0x00,0x00,0x48,0x00,0x00,0x00,0x28,0x00,0x00,
 0x00,0x18,0x00,0x00,0x00,0x08,0x00,0x00,0x80,0x20,0x00,0x00,0x40,0x51,0x00,
 0x18,0x40,0x4e,0x00,0x24,0x20,0x80,0x00,0x24,0x20,0x80,0x00,0x14,0x9f,0xa4,
 0x00,0x94,0x0a,0x0a,0x01,0x74,0x0a,0x00,0x01,0x28,0x0a,0x00,0x01,0x28,0x0a,
 0x00,0x01,0x10,0x00,0x00,0x01,0x10,0x00,0x00,0x01,0x10,0x00,0x00,0x01,0x20,
 0x00,0x80,0x00,0x40,0x00,0x40,0x00,0x80,0xf6,0x2d,0x00,0x80,0x19,0x33,0x00 };
