/* XPM */
static char *nyancat_small[]={
"32 20 8 1",
". c None",
"# c #000000",
"d c #999999",
"c c #ff0099",
"f c #ff9999",
"b c #ff99ff",
"a c #ffcc99",
"e c #ffffff",
"........#################.......",
".......#aaaaaaaaaaaaaaaaa#......",
"......#aaabbbbbbbbbbbbbaaa#.....",
"......#aabbbbbbcbbcbbbbbaa#.....",
"......#abbcbbbbbbbbbbbbbba#.....",
"......#abbbbbbbbb##bbbcbba#.##..",
"......#abbbbbcbb#dd#bbbbba##dd#.",
"####..#abbbbbbbb#ddd#bbbba#ddd#.",
"#dd##.#abbbbbbbb#dddd#####dddd#.",
"##dd###abbbcbbbb#ddddddddddddd#.",
".##dd##abbbbbbc#ddddddddddddddd#",
"..##dd#abcbbbbb#ddde#ddddde#ddd#",
"...####abbbbbbb#ddd##ddd#d##ddd#",
".....##abbbbcbb#dffdddddddddffd#",
"......#aabcbbbb#dffd#dd#dd#dffd#",
"......#aaabbbbbb#ddd#######ddd#.",
".....###aaaaaaaaa#ddddddddddd#..",
"....#ddd#####################...",
"....#dd##.#dd#....#dd#.#dd#.....",
"....####..###......###..##......"};
