/* XPM */
static char *nyan_cat[]={
"40 20 14 1",
"# c None",
"a c #000000",
"h c #1bbf20",
"j c #549eff",
"l c #6c0aff",
"f c #828282",
"e c #ee00ff",
"g c #f7ff00",
". c #ff0000",
"k c #ff8a8a",
"d c #ff9100",
"c c #ffb3f2",
"b c #fff8b5",
"i c #ffffff",
"....############aaaaaaaaaaaaaaaaa#######",
"....####.......abbbbbbbbbbbbbbbbba######",
"..............abbbcccccccccccccbbba#####",
"dddd..........abbcccccceccecccccbba#####",
"dddd....ddddddabccecccccccaacccccba#aa##",
"ddddddddddddddabcccccccccaffaceccbaaffa#",
"ggggddddddddddabcccccccccafffacccbafffa#",
"ggggddddgaagggabcccccceccaffffaaaaffffa#",
"ggggggggaffaggabcccccccccaffffffffffffa#",
"hhhhggggaffaaaabccceccccaffffffffffffffa",
"hhhhgggghaffffabccccccceafffiafffffiaffa",
"hhhhhhhhhhaaffabceccccccafffaafffafaaffa",
"jjjjhhhhhhhhaaabccccccccafkkfffffffffkka",
"jjjjhhhhjjjjjjabccccceccafkkfaffaffafkka",
"jjjjjjjjjjjjjjabbceccccccafffaaaaaaaffa#",
"lllljjjjjjjjjaabbbccccccccaffffffffffa##",
"lllljjjjllllafaabbbbbbbbbbbaaaaaaaaaa###",
"lllllllllllafffaaaaaaaaaaaaaaaaaafa#####",
"####lllllllaffa#affa#####affa#aaffa#####",
"####llll###aaa##aaa######aaa###aaaa#####"};
