/* XPM */
static char *pusheen[]={
"40 32 12 1",
". c None",
"# c #000000",
"d c #0392cf",
"b c #525252",
"j c #795548",
"i c #8bc34a",
"f c #8d5524",
"a c #9e9e9e",
"g c #ee4035",
"e c #ffad60",
"h c #ffeb3b",
"c c #ffffff",
"......................#.........#.......",
".....................#a#.......#a#......",
"...........#######..#aaa#.....#aa#......",
"........###abbbaaa##aaaaa#####aaaa#.....",
"......##bbaabbbaaaaaaaaaabababaaaa#.....",
"....##abbbaaabaaaaaaaaaaabababaaaa#.....",
"...#aaaabaaaaaaaa###aaaaaaaaaaaaaaa###..",
"..#aaaaaaaaaaaaaaaaaaa##aaaaaaa##aa#....",
".#aaaaaaaaaaaaaaa###aa##aaa#aaa##aa###..",
".#aaaaaaaaaaaaaaaaaaaaaaaa#c#aaaaaa#....",
"#aaaaaaaaaaaaaaaaaaaaaaaaaa#.#aaaaaa#...",
"#aaaaaaaaaaaaaaaaaaaaaaaaaa#c#aaaaaa#...",
"#aaaaaaaaaaaaaaaaaaaaaaaaaa#c#aaaaaa#...",
"#aaaaaaaaaaaaaaaaaaaaaaaa###c###aaaaa#..",
"#aaaaaaaaaaaaaaaaaaaaaa##cc#c#cc##aaa#..",
"#aaaaaaaaaaaaaaaaaaaaaa#c#######c#aaa#..",
"#aaaaaaaaaaaaaaaaaaaaaa##c#c#c#c##aaa#..",
"#aaaaaaaaaaaaaaaaaaaaaaa#########aaaa#..",
"#aaaaaaaaaaaaaaaaaaaaaaa#ddddddd#aaaa#..",
"#aaaaaaaaaaaaaaaaaaaaaaa#ddddddd#aaa#...",
"#aaaaaaaaaaaaaaaaaaaaaaa#ddddddd#aaa#...",
".#aaaaaaaa##aaaaaaaaaaaa#ddddddd#aaa#...",
".#aaaaaaa#ab#aaa####aaaa#ddddddd#aa#....",
"..#aa####aab#aa#eeee#aaa#ddddddd#a###...",
"..#aabbabba#aa#eefefe#aa#ddddddd##ggg#..",
"...##bbabb#aaa#eeeeee#aa#ddddddd#ggggg#.",
".....####################dddddd#h##ggg##",
".............#iiiiiiii#..#dddd#h#h##g#g#",
".............#jjjjjjjj#...####h#h#h##gg#",
"..............########........#h#h#h#g#.",
"..............#eeeeee#.........#h#h###..",
"...............######...........###....."};
