/* XPM */
static char *temperature_icon[]={
"9 16 3 1",
". c #000000",
"a c #ff0000",
"# c #ffffff",
"...###...",
"..#...#..",
"..#...#..",
"..#...##.",
"..#...#..",
"..#...##.",
"..#.a.#..",
"..#.a.##.",
"..#.a.#..",
".#..a..#.",
"#..aaa..#",
"#.aaaaa.#",
"#.aaaaa.#",
"#..aaa..#",
".#.....#.",
"..#####.."};
